<?xml version='1.0' encoding='UTF-8'?>
<!DOCTYPE svg PUBLIC "-//W3C//DTD SVG 1.0//EN" "http://www.w3.org/TR/2001/REC-SVG-20010904/DTD/svg10.dtd">
<svg viewBox="0 0 640 560" xmlns="http://www.w3.org/2000/svg" xmlns:inkspace="http://www.inkscape.org/namespaces/inkscape" xmlns:xlink="http://www.w3.org/1999/xlink">
  <defs id="defs_block">
    <filter height="1.504" id="filter_blur" inkspace:collect="always" width="1.1575" x="-0.07875" y="-0.252">
      <feGaussianBlur id="feGaussianBlur3780" inkspace:collect="always" stdDeviation="4.2" />
    </filter>
  </defs>
  <title>blockdiag</title>
  <desc />
  <path d="M 64 48 L 64 80" fill="none" stroke="rgb(0,0,0)" />
  <text fill="rgb(0,0,0)" font-family="sans-serif" font-size="11" font-style="normal" font-weight="normal" text-anchor="middle" textLength="7" x="64" y="42">0</text>
  <path d="M 72 64 L 72 80" fill="none" stroke="rgb(0,0,0)" />
  <path d="M 80 64 L 80 80" fill="none" stroke="rgb(0,0,0)" />
  <path d="M 88 64 L 88 80" fill="none" stroke="rgb(0,0,0)" />
  <path d="M 96 64 L 96 80" fill="none" stroke="rgb(0,0,0)" />
  <path d="M 104 64 L 104 80" fill="none" stroke="rgb(0,0,0)" />
  <path d="M 112 64 L 112 80" fill="none" stroke="rgb(0,0,0)" />
  <path d="M 120 64 L 120 80" fill="none" stroke="rgb(0,0,0)" />
  <path d="M 128 64 L 128 80" fill="none" stroke="rgb(0,0,0)" />
  <path d="M 136 64 L 136 80" fill="none" stroke="rgb(0,0,0)" />
  <path d="M 144 64 L 144 80" fill="none" stroke="rgb(0,0,0)" />
  <path d="M 152 64 L 152 80" fill="none" stroke="rgb(0,0,0)" />
  <path d="M 160 64 L 160 80" fill="none" stroke="rgb(0,0,0)" />
  <path d="M 168 64 L 168 80" fill="none" stroke="rgb(0,0,0)" />
  <path d="M 176 64 L 176 80" fill="none" stroke="rgb(0,0,0)" />
  <path d="M 184 64 L 184 80" fill="none" stroke="rgb(0,0,0)" />
  <path d="M 192 48 L 192 80" fill="none" stroke="rgb(0,0,0)" />
  <path d="M 200 64 L 200 80" fill="none" stroke="rgb(0,0,0)" />
  <path d="M 208 64 L 208 80" fill="none" stroke="rgb(0,0,0)" />
  <path d="M 216 64 L 216 80" fill="none" stroke="rgb(0,0,0)" />
  <path d="M 224 64 L 224 80" fill="none" stroke="rgb(0,0,0)" />
  <path d="M 232 64 L 232 80" fill="none" stroke="rgb(0,0,0)" />
  <path d="M 240 64 L 240 80" fill="none" stroke="rgb(0,0,0)" />
  <path d="M 248 64 L 248 80" fill="none" stroke="rgb(0,0,0)" />
  <path d="M 256 64 L 256 80" fill="none" stroke="rgb(0,0,0)" />
  <path d="M 264 64 L 264 80" fill="none" stroke="rgb(0,0,0)" />
  <path d="M 272 64 L 272 80" fill="none" stroke="rgb(0,0,0)" />
  <path d="M 280 64 L 280 80" fill="none" stroke="rgb(0,0,0)" />
  <path d="M 288 64 L 288 80" fill="none" stroke="rgb(0,0,0)" />
  <path d="M 296 64 L 296 80" fill="none" stroke="rgb(0,0,0)" />
  <path d="M 304 64 L 304 80" fill="none" stroke="rgb(0,0,0)" />
  <path d="M 312 64 L 312 80" fill="none" stroke="rgb(0,0,0)" />
  <path d="M 320 48 L 320 80" fill="none" stroke="rgb(0,0,0)" />
  <text fill="rgb(0,0,0)" font-family="sans-serif" font-size="11" font-style="normal" font-weight="normal" text-anchor="middle" textLength="13" x="320" y="42">32</text>
  <path d="M 328 64 L 328 80" fill="none" stroke="rgb(0,0,0)" />
  <path d="M 336 64 L 336 80" fill="none" stroke="rgb(0,0,0)" />
  <path d="M 344 64 L 344 80" fill="none" stroke="rgb(0,0,0)" />
  <path d="M 352 64 L 352 80" fill="none" stroke="rgb(0,0,0)" />
  <path d="M 360 64 L 360 80" fill="none" stroke="rgb(0,0,0)" />
  <path d="M 368 64 L 368 80" fill="none" stroke="rgb(0,0,0)" />
  <path d="M 376 64 L 376 80" fill="none" stroke="rgb(0,0,0)" />
  <path d="M 384 64 L 384 80" fill="none" stroke="rgb(0,0,0)" />
  <path d="M 392 64 L 392 80" fill="none" stroke="rgb(0,0,0)" />
  <path d="M 400 64 L 400 80" fill="none" stroke="rgb(0,0,0)" />
  <path d="M 408 64 L 408 80" fill="none" stroke="rgb(0,0,0)" />
  <path d="M 416 64 L 416 80" fill="none" stroke="rgb(0,0,0)" />
  <path d="M 424 64 L 424 80" fill="none" stroke="rgb(0,0,0)" />
  <path d="M 432 64 L 432 80" fill="none" stroke="rgb(0,0,0)" />
  <path d="M 440 64 L 440 80" fill="none" stroke="rgb(0,0,0)" />
  <path d="M 448 48 L 448 80" fill="none" stroke="rgb(0,0,0)" />
  <path d="M 456 64 L 456 80" fill="none" stroke="rgb(0,0,0)" />
  <path d="M 464 64 L 464 80" fill="none" stroke="rgb(0,0,0)" />
  <path d="M 472 64 L 472 80" fill="none" stroke="rgb(0,0,0)" />
  <path d="M 480 64 L 480 80" fill="none" stroke="rgb(0,0,0)" />
  <path d="M 488 64 L 488 80" fill="none" stroke="rgb(0,0,0)" />
  <path d="M 496 64 L 496 80" fill="none" stroke="rgb(0,0,0)" />
  <path d="M 504 64 L 504 80" fill="none" stroke="rgb(0,0,0)" />
  <path d="M 512 64 L 512 80" fill="none" stroke="rgb(0,0,0)" />
  <path d="M 520 64 L 520 80" fill="none" stroke="rgb(0,0,0)" />
  <path d="M 528 64 L 528 80" fill="none" stroke="rgb(0,0,0)" />
  <path d="M 536 64 L 536 80" fill="none" stroke="rgb(0,0,0)" />
  <path d="M 544 64 L 544 80" fill="none" stroke="rgb(0,0,0)" />
  <path d="M 552 64 L 552 80" fill="none" stroke="rgb(0,0,0)" />
  <path d="M 560 64 L 560 80" fill="none" stroke="rgb(0,0,0)" />
  <path d="M 568 64 L 568 80" fill="none" stroke="rgb(0,0,0)" />
  <path d="M 576 48 L 576 80" fill="none" stroke="rgb(0,0,0)" />
  <text fill="rgb(0,0,0)" font-family="sans-serif" font-size="11" font-style="normal" font-weight="normal" text-anchor="middle" textLength="13" x="576" y="42">64</text>
  <rect fill="rgb(255,255,255)" height="40" stroke="rgb(255,255,255)" width="256" x="64" y="80" />
  <path d="M 64 80 L 320 80" fill="none" stroke="rgb(0,0,0)" />
  <path d="M 320 80 L 320 120" fill="none" stroke="rgb(0,0,0)" />
  <path d="M 320 120 L 64 120" fill="none" stroke="rgb(0,0,0)" />
  <path d="M 64 120 L 64 80" fill="none" stroke="rgb(0,0,0)" />
  <text fill="rgb(0,0,0)" font-family="sans-serif" font-size="11" font-style="normal" font-weight="normal" text-anchor="middle" textLength="61" x="192" y="106">Account IP</text>
  <rect fill="rgb(255,255,255)" height="40" stroke="rgb(255,255,255)" width="256" x="64" y="120" />
  <path d="M 64 120 L 320 120" fill="none" stroke="rgb(0,0,0)" />
  <path d="M 320 120 L 320 160" fill="none" stroke="rgb(0,0,0)" />
  <path d="M 320 160 L 64 160" fill="none" stroke="rgb(0,0,0)" />
  <path d="M 64 160 L 64 120" fill="none" stroke="rgb(0,0,0)" stroke-dasharray="4" />
  <text fill="rgb(0,0,0)" font-family="sans-serif" font-size="11" font-style="normal" font-weight="normal" text-anchor="middle" textLength="13" x="192" y="146">IV</text>
  <rect fill="rgb(255,255,255)" height="40" stroke="rgb(255,255,255)" width="256" x="320" y="120" />
  <path d="M 320 120 L 576 120" fill="none" stroke="rgb(0,0,0)" />
  <path d="M 576 120 L 576 160" fill="none" stroke="rgb(0,0,0)" />
  <path d="M 576 160 L 320 160" fill="none" stroke="rgb(0,0,0)" />
  <path d="M 320 160 L 320 120" fill="none" stroke="rgb(0,0,0)" />
  <text fill="rgb(0,0,0)" font-family="sans-serif" font-size="11" font-style="normal" font-weight="normal" text-anchor="middle" textLength="49" x="448" y="146">Checksum</text>
  <rect fill="rgb(255,255,255)" height="40" stroke="rgb(255,255,255)" width="512" x="64" y="160" />
  <path d="M 64 160 L 576 160" fill="none" stroke="rgb(0,0,0)" />
  <path d="M 576 160 L 576 200" fill="none" stroke="rgb(0,0,0)" />
  <path d="M 576 200 L 64 200" fill="none" stroke="rgb(0,0,0)" />
  <path d="M 64 200 L 64 160" fill="none" stroke="rgb(0,0,0)" />
  <text fill="rgb(0,0,0)" font-family="sans-serif" font-size="11" font-style="normal" font-weight="normal" text-anchor="middle" textLength="37" x="320" y="186">IV Rcv</text>
  <rect fill="rgb(255,255,255)" height="40" stroke="rgb(255,255,255)" width="512" x="64" y="200" />
  <path d="M 64 200 L 576 200" fill="none" stroke="rgb(0,0,0)" />
  <path d="M 576 200 L 576 240" fill="none" stroke="rgb(0,0,0)" />
  <path d="M 576 240 L 64 240" fill="none" stroke="rgb(0,0,0)" />
  <path d="M 64 240 L 64 200" fill="none" stroke="rgb(0,0,0)" />
  <text fill="rgb(0,0,0)" font-family="sans-serif" font-size="11" font-style="normal" font-weight="normal" text-anchor="middle" textLength="31" x="320" y="226">IV Tx</text>
  <rect fill="rgb(255,255,255)" height="40" stroke="rgb(255,255,255)" width="512" x="64" y="240" />
  <path d="M 64 240 L 576 240" fill="none" stroke="rgb(0,0,0)" />
  <path d="M 576 240 L 576 280" fill="none" stroke="rgb(0,0,0)" />
  <path d="M 576 280 L 64 280" fill="none" stroke="rgb(0,0,0)" />
  <path d="M 64 280 L 64 240" fill="none" stroke="rgb(0,0,0)" />
  <text fill="rgb(0,0,0)" font-family="sans-serif" font-size="11" font-style="normal" font-weight="normal" text-anchor="middle" textLength="25" x="320" y="266">Rand</text>
  <rect fill="rgb(255,255,255)" height="40" stroke="rgb(255,255,255)" width="256" x="64" y="280" />
  <path d="M 64 280 L 320 280" fill="none" stroke="rgb(0,0,0)" />
  <path d="M 320 280 L 320 320" fill="none" stroke="rgb(0,0,0)" />
  <path d="M 320 320 L 64 320" fill="none" stroke="rgb(0,0,0)" />
  <path d="M 64 320 L 64 280" fill="none" stroke="rgb(0,0,0)" />
  <text fill="rgb(0,0,0)" font-family="sans-serif" font-size="11" font-style="normal" font-weight="normal" text-anchor="middle" textLength="31" x="192" y="306">Masks</text>
  <rect fill="rgb(255,255,255)" height="40" stroke="rgb(255,255,255)" width="256" x="320" y="280" />
  <path d="M 320 280 L 576 280" fill="none" stroke="rgb(0,0,0)" />
  <path d="M 576 280 L 576 320" fill="none" stroke="rgb(0,0,0)" />
  <path d="M 576 320 L 320 320" fill="none" stroke="rgb(0,0,0)" />
  <path d="M 320 320 L 320 280" fill="none" stroke="rgb(0,0,0)" />
  <text fill="rgb(0,0,0)" font-family="sans-serif" font-size="11" font-style="normal" font-weight="normal" text-anchor="middle" textLength="103" x="448" y="306">Route1 (optional)</text>
  <rect fill="rgb(255,255,255)" height="40" stroke="rgb(255,255,255)" width="256" x="64" y="320" />
  <path d="M 64 320 L 320 320" fill="none" stroke="rgb(0,0,0)" />
  <path d="M 320 320 L 320 360" fill="none" stroke="rgb(0,0,0)" />
  <path d="M 320 360 L 64 360" fill="none" stroke="rgb(0,0,0)" />
  <path d="M 64 360 L 64 320" fill="none" stroke="rgb(0,0,0)" />
  <text fill="rgb(0,0,0)" font-family="sans-serif" font-size="11" font-style="normal" font-weight="normal" text-anchor="middle" textLength="103" x="192" y="346">Route2 (optional)</text>
  <rect fill="rgb(255,255,255)" height="40" stroke="rgb(255,255,255)" width="256" x="320" y="320" />
  <path d="M 320 320 L 576 320" fill="none" stroke="rgb(0,0,0)" />
  <path d="M 576 320 L 576 360" fill="none" stroke="rgb(0,0,0)" />
  <path d="M 576 360 L 320 360" fill="none" stroke="rgb(0,0,0)" />
  <path d="M 320 360 L 320 320" fill="none" stroke="rgb(0,0,0)" />
  <text fill="rgb(0,0,0)" font-family="sans-serif" font-size="11" font-style="normal" font-weight="normal" text-anchor="middle" textLength="103" x="448" y="346">Route3 (optional)</text>
  <rect fill="rgb(255,255,255)" height="40" stroke="rgb(255,255,255)" width="256" x="64" y="360" />
  <path d="M 64 360 L 320 360" fill="none" stroke="rgb(0,0,0)" />
  <path d="M 320 360 L 320 400" fill="none" stroke="rgb(0,0,0)" />
  <path d="M 320 400 L 64 400" fill="none" stroke="rgb(0,0,0)" />
  <path d="M 64 400 L 64 360" fill="none" stroke="rgb(0,0,0)" />
  <text fill="rgb(0,0,0)" font-family="sans-serif" font-size="11" font-style="normal" font-weight="normal" text-anchor="middle" textLength="103" x="192" y="386">Route4 (optional)</text>
  <rect fill="rgb(255,255,255)" height="40" stroke="rgb(255,255,255)" width="512" x="64" y="400" />
  <path d="M 64 400 L 576 400" fill="none" stroke="rgb(0,0,0)" />
  <path d="M 576 400 L 576 440" fill="none" stroke="rgb(0,0,0)" />
  <path d="M 576 440 L 64 440" fill="none" stroke="rgb(0,0,0)" />
  <path d="M 64 440 L 64 400" fill="none" stroke="rgb(0,0,0)" stroke-dasharray="4" />
  <text fill="rgb(0,0,0)" font-family="sans-serif" font-size="11" font-style="normal" font-weight="normal" text-anchor="middle" textLength="49" x="320" y="426">Message1</text>
  <rect fill="rgb(255,255,255)" height="40" stroke="rgb(255,255,255)" width="448" x="64" y="480" />
  <path d="M 64 480 L 512 480" fill="none" stroke="rgb(0,0,0)" />
  <path d="M 512 480 L 512 520" fill="none" stroke="rgb(0,0,0)" />
  <path d="M 512 520 L 64 520" fill="none" stroke="rgb(0,0,0)" />
  <path d="M 64 520 L 64 480" fill="none" stroke="rgb(0,0,0)" stroke-dasharray="4" />
  <text fill="rgb(0,0,0)" font-family="sans-serif" font-size="11" font-style="normal" font-weight="normal" text-anchor="middle" textLength="49" x="288" y="506">Message2</text>
  <rect fill="rgb(255,255,255)" height="40" stroke="rgb(255,255,255)" width="256" x="320" y="80" />
  <path d="M 320 80 L 576 80" fill="none" stroke="rgb(0,0,0)" />
  <path d="M 576 80 L 576 120" fill="none" stroke="rgb(0,0,0)" stroke-dasharray="4" />
  <path d="M 576 120 L 320 120" fill="none" stroke="rgb(0,0,0)" />
  <path d="M 320 120 L 320 80" fill="none" stroke="rgb(0,0,0)" />
  <text fill="rgb(0,0,0)" font-family="sans-serif" font-size="11" font-style="normal" font-weight="normal" text-anchor="middle" textLength="13" x="448" y="106">IV</text>
  <rect fill="rgb(255,255,255)" height="40" stroke="rgb(255,255,255)" width="256" x="320" y="360" />
  <path d="M 320 360 L 576 360" fill="none" stroke="rgb(0,0,0)" />
  <path d="M 576 360 L 576 400" fill="none" stroke="rgb(0,0,0)" stroke-dasharray="4" />
  <path d="M 576 400 L 320 400" fill="none" stroke="rgb(0,0,0)" />
  <path d="M 320 400 L 320 360" fill="none" stroke="rgb(0,0,0)" />
  <text fill="rgb(0,0,0)" font-family="sans-serif" font-size="11" font-style="normal" font-weight="normal" text-anchor="middle" textLength="49" x="448" y="386">Message1</text>
  <rect fill="rgb(255,255,255)" height="40" stroke="rgb(255,255,255)" width="512" x="64" y="440" />
  <path d="M 64 440 L 576 440" fill="none" stroke="rgb(0,0,0)" />
  <path d="M 576 440 L 576 480" fill="none" stroke="rgb(0,0,0)" stroke-dasharray="4" />
  <path d="M 576 480 L 64 480" fill="none" stroke="rgb(0,0,0)" />
  <path d="M 64 480 L 64 440" fill="none" stroke="rgb(0,0,0)" />
  <text fill="rgb(0,0,0)" font-family="sans-serif" font-size="11" font-style="normal" font-weight="normal" text-anchor="middle" textLength="49" x="320" y="466">Message2</text>
</svg>
